{"title":"My Sister's Machine - Diva(1992) [Flac]","uid":6368637,"size":278099833,"categoryP":"audio","categoryS":"flac","magnet":"?xt=urn:btih:10da58901865a9ff0607727188b4d98e5f75c19b&amp;dn=My+Sister%5C%27s+Machine+-+Diva%281992%29+%5BFlac%5D&amp;tr=udp%3A%2F%2Ftracker.openbittorrent.com%3A80&amp;tr=udp%3A%2F%2Fopen.demonii.com%3A1337&amp;tr=udp%3A%2F%2Ftracker.coppersurfer.tk%3A6969&amp;tr=udp%3A%2F%2Fexodus.desync.com%3A6969","seeders":1,"leechers":1,"uploader":"the808","files":11,"time":1304596236,"description":"Exact Audio Copy V0.99 prebeta 5 from 4. May 2009\n\nEAC extraction logfile from 5. May 2011, 10:44\n\nMy Sister's Machine / Diva\n\nUsed drive  : HL-DT-STBDDVDRW GBC-H20L   Adapter: 0  ID: 1\n\nRead mode : Burst\n\nRead offset correction                      : 667\nOverread into Lead-In and Lead-Out          : No\nFill up missing offset samples with silence : Yes\nDelete leading and trailing silent blocks   : No\nNull samples used in CRC calculations       : No\nUsed interface                              : Native Win32 interface for Win NT &amp; 2000\nGap handling                                : Not detected, thus appended to previous track\n\nUsed output format              : User Defined Encoder\nSelected bitrate                : 768 kBit/s\nQuality                         : High\nAdd ID3 tag                     : No\nCommand line compressor         : C:\\Program Files (x86)\\Exact Audio Copy\\FLAC\\FLAC.EXE\nAdditional command line options : -6 -V -T &quot;ARTIST=%a&quot; -T &quot;TITLE=%t&quot; -T &quot;ALBUM=%g&quot; -T &quot;DATE=%y&quot; -T &quot;TRACKNUMBER=%n&quot; -T &quot;GENRE=%m&quot; -T &quot;COMMENT=%e&quot; %s -o %d\n\n\nTOC of the extracted CD\n\n     Track |   Start  |  Length  | Start sector | End sector \n    ---------------------------------------------------------\n        1  |  0:00.50 |  3:57.47 |        50    |    17871   \n        2  |  3:58.22 |  2:21.43 |     17872    |    28489   \n        3  |  6:19.65 |  3:39.42 |     28490    |    44956   \n        4  |  9:59.32 |  5:08.40 |     44957    |    68096   \n        5  | 15:07.72 |  4:21.68 |     68097    |    87739   \n        6  | 19:29.65 |  3:28.27 |     87740    |   103366   \n        7  | 22:58.17 |  3:48.55 |    103367    |   120521   \n        8  | 26:46.72 |  3:59.23 |    120522    |   138469   \n        9  | 30:46.20 |  2:55.52 |    138470    |   151646   \n       10  | 33:41.72 |  5:05.05 |    151647    |   174526   \n\n\nTrack  1\n\n     Filename C:\\Musikk\\Futte\\My Sister's Machine - Diva (1992)\\01 My Sister's Machine - Hands and Feet.wav\n\n     Peak level 97.2 %\n     Test CRC 45F589D3\n     Copy CRC 45F589D3\n     Accurately ripped (confidence 7)  [0798C9C5]\n     Copy OK\n\nTrack  2\n\n     Filename C:\\Musikk\\Futte\\My Sister's Machine - Diva (1992)\\02 My Sister's Machine - Pain.wav\n\n     Peak level 97.2 %\n     Test CRC 89528F80\n     Copy CRC 89528F80\n     Accurately ripped (confidence 7)  [F4458471]\n     Copy OK\n\nTrack  3\n\n     Filename C:\\Musikk\\Futte\\My Sister's Machine - Diva (1992)\\03 My Sister's Machine - I Hate You.wav\n\n     Peak level 97.2 %\n     Test CRC 4BE84995\n     Copy CRC 4BE84995\n     Accurately ripped (confidence 7)  [268867EB]\n     Copy OK\n\nTrack  4\n\n     Filename C:\\Musikk\\Futte\\My Sister's Machine - Diva (1992)\\04 My Sister's Machine - Wasting Time.wav\n\n     Peak level 97.2 %\n     Test CRC 8C710C23\n     Copy CRC 8C710C23\n     Accurately ripped (confidence 7)  [C38627AE]\n     Copy OK\n\nTrack  5\n\n     Filename C:\\Musikk\\Futte\\My Sister's Machine - Diva (1992)\\05 My Sister's Machine - Love At High Speed.wav\n\n     Timing problem 0:02:08\n\n     Peak level 97.2 %\n     Test CRC 4D89A283\n     Copy CRC 4D89A283\n     Accurately ripped (confidence 7)  [1823EA06]\n     Copy finished\n\nTrack  6\n\n     Filename C:\\Musikk\\Futte\\My Sister's Machine - Diva (1992)\\06 My Sister's Machine - I'm Sorry.wav\n\n     Peak level 97.2 %\n     Test CRC E33763BF\n     Copy CRC E33763BF\n     Accurately ripped (confidence 7)  [BB3F6571]\n     Copy OK\n\nTrack  7\n\n     Filename C:\\Musikk\\Futte\\My Sister's Machine - Diva (1992)\\07 My Sister's Machine - Walk All Over You.wav\n\n     Peak level 97.2 %\n     Test CRC FF0D26C6\n     Copy CRC FF0D26C6\n     Accurately ripped (confidence 7)  [8B972A77]\n     Copy OK\n\nTrack  8\n\n     Filename C:\\Musikk\\Futte\\My Sister's Machine - Diva (1992)\\08 My Sister's Machine - Sunday.wav\n\n     Peak level 97.2 %\n     Test CRC E6DBD9B2\n     Copy CRC E6DBD9B2\n     Accurately ripped (confidence 7)  [B2ED9B87]\n     Copy OK\n\nTrack  9\n\n     Filename C:\\Musikk\\Futte\\My Sister's Machine - Diva (1992)\\09 My Sister's Machine - Monster Box.wav\n\n     Peak level 97.2 %\n     Test CRC D78F2C9B\n     Copy CRC D78F2C9B\n     Accurately ripped (confidence 7)  [B8A73576]\n     Copy OK\n\nTrack 10\n\n     Filename C:\\Musikk\\Futte\\My Sister's Machine - Diva (1992)\\10 My Sister's Machine - Diva.wav\n\n     Peak level 97.2 %\n     Test CRC 62D75724\n     Copy CRC 62D75724\n     Accurately ripped (confidence 6)  [1BC2B7A7]\n     Copy OK\n\n\nAll tracks accurately ripped\n\nNo errors occurred\n\nEnd of status report","torrent":{"xt":"urn:btih:10da58901865a9ff0607727188b4d98e5f75c19b","amp;dn":"My+Sister%5C%27s+Machine+-+Diva%281992%29+%5BFlac%5D","amp;tr":["udp%3A%2F%2Ftracker.openbittorrent.com%3A80","udp%3A%2F%2Fopen.demonii.com%3A1337","udp%3A%2F%2Ftracker.coppersurfer.tk%3A6969","udp%3A%2F%2Fexodus.desync.com%3A6969"],"infoHash":"10da58901865a9ff0607727188b4d98e5f75c19b","infoHashBuffer":{"type":"Buffer","data":[16,218,88,144,24,101,169,255,6,7,114,113,136,180,217,142,95,117,193,155]},"announce":[],"urlList":[]}}